HIERARCHY
ROOT SpineBase
{
  OFFSET 0.000000 0.000000 0.000000
  CHANNELS 6 Xposition Yposition Zposition Zrotation Xrotation Yrotation
  JOINT SpineMid
  {
    OFFSET 0.000000 31.414314 -0.000000
    CHANNELS 3 Zrotation Xrotation Yrotation
    JOINT SpineShoulder
    {
      OFFSET 0.115912 23.267651 -0.707092
      CHANNELS 3 Zrotation Xrotation Yrotation
      JOINT Neck
      {
        OFFSET 0.118310 7.682261 -0.551427
        CHANNELS 3 Zrotation Xrotation Yrotation
        JOINT Head
        {
          OFFSET 6.633538 13.468099 0.622288
          CHANNELS 3 Zrotation Xrotation Yrotation
          End Site
          {
            OFFSET 0 0 0
          }
        }
      }
      JOINT ShoulderLeft
      {
        OFFSET -9.642708 -1.984603 -12.988517
        CHANNELS 3 Zrotation Xrotation Yrotation
        JOINT ElbowLeft
        {
          OFFSET -6.348678 -25.442442 -5.293045
          CHANNELS 3 Zrotation Xrotation Yrotation
          JOINT WristLeft
          {
            OFFSET 1.153993 -25.472143 -5.929315
            CHANNELS 3 Zrotation Xrotation Yrotation
            JOINT HandLeft
            {
              OFFSET -0.123701 -5.469197 -0.879866
              CHANNELS 3 Zrotation Xrotation Yrotation
              JOINT HandTipLeft
              {
                OFFSET 1.172953 -5.743734 -1.321118
                CHANNELS 3 Zrotation Xrotation Yrotation
                End Site
                {
                  OFFSET 0 0 0
                }
              }
              JOINT ThumbLeft
              {
                OFFSET -0.897602 -0.152833 -3.654371
                CHANNELS 3 Zrotation Xrotation Yrotation
                End Site
                {
                  OFFSET 0 0 0
                }
              }
            }
          }
        }
      }
      JOINT ShoulderRight
      {
        OFFSET 11.496772 -4.660067 13.828614
        CHANNELS 3 Zrotation Xrotation Yrotation
        JOINT ElbowRight
        {
          OFFSET 0.837725 -31.059663 5.086549
          CHANNELS 3 Zrotation Xrotation Yrotation
          JOINT WristRight
          {
            OFFSET 3.060169 -23.162192 -2.124296
            CHANNELS 3 Zrotation Xrotation Yrotation
            JOINT HandRight
            {
              OFFSET 0.853302 -6.428447 -1.715479
              CHANNELS 3 Zrotation Xrotation Yrotation
              JOINT HandTipRight
              {
                OFFSET -0.558064 -4.340651 -0.890895
                CHANNELS 3 Zrotation Xrotation Yrotation
                End Site
                {
                  OFFSET 0 0 0
                }
              }
              JOINT ThumbRight
              {
                OFFSET -3.327493 -2.362202 -0.466507
                CHANNELS 3 Zrotation Xrotation Yrotation
                End Site
                {
                  OFFSET 0 0 0
                }
              }
            }
          }
        }
      }
    }
  }
  JOINT HipLeft
  {
    OFFSET -3.613894 1.936090 -8.348879
    CHANNELS 3 Zrotation Xrotation Yrotation
    JOINT KneeLeft
    {
      OFFSET -11.367887 -35.841021 -2.509974
      CHANNELS 3 Zrotation Xrotation Yrotation
      JOINT AnkleLeft
      {
        OFFSET -7.783991 -35.825265 6.186378
        CHANNELS 3 Zrotation Xrotation Yrotation
        JOINT FootLeft
        {
          OFFSET 5.999017 -3.455358 -7.280880
          CHANNELS 3 Zrotation Xrotation Yrotation
          End Site
          {
            OFFSET 0 0 0
          }
        }
      }
    }
  }
  JOINT HipRight
  {
    OFFSET 5.451008 -0.240471 1.426872
    CHANNELS 3 Zrotation Xrotation Yrotation
    JOINT KneeRight
    {
      OFFSET -3.080813 -36.477330 2.375763
      CHANNELS 3 Zrotation Xrotation Yrotation
      JOINT AnkleRight
      {
        OFFSET -3.152473 -37.225163 7.135797
        CHANNELS 3 Zrotation Xrotation Yrotation
        JOINT FootRight
        {
          OFFSET 1.261694 -5.443282 -6.489923
          CHANNELS 3 Zrotation Xrotation Yrotation
          End Site
          {
            OFFSET 0 0 0
          }
        }
      }
    }
  }
}
MOTION
Frames: 13
Frame Time: 0.033333
-84.859093 79.386246 313.369778 0.000000 -0.000000 -47.160718 -0.000000 0.000000 47.160718 -0.000000 0.000000 0.000000 -0.000000 0.000000 0.000000 0.000000 0.000000 0.000000 -0.000000 0.000000 0.000000 -0.000000 0.000000 0.000000 -0.000000 0.000000 0.000000 -0.000000 0.000000 0.000000 0.000000 0.000000 0.000000 0.000000 0.000000 0.000000 -0.000000 0.000000 0.000000 -0.000000 0.000000 0.000000 -0.000000 0.000000 0.000000 -0.000000 0.000000 0.000000 0.000000 0.000000 0.000000 0.000000 0.000000 0.000000 -0.000000 0.000000 47.160718 -0.000000 0.000000 0.000000 -0.000000 0.000000 0.000000 0.000000 0.000000 0.000000 -0.000000 0.000000 47.160718 -0.000000 0.000000 0.000000 -0.000000 0.000000 0.000000 0.000000 0.000000 0.000000
-84.896563 79.386448 313.394482 0.060970 0.066843 -47.265795 0.007723 -0.090143 47.265765 -0.000000 0.000000 0.000000 -0.000000 0.000000 0.000000 0.000000 0.000000 0.000000 -0.000000 0.000000 0.000000 -0.000000 0.000000 0.000000 0.990516 0.655404 -0.179714 -1.457764 -3.761969 -0.377268 0.000000 0.000000 0.000000 0.000000 0.000000 0.000000 -0.000000 0.000000 0.000000 0.616720 0.858979 0.052231 0.556577 0.537366 -0.185141 -1.627559 -0.224040 0.048575 0.000000 0.000000 0.000000 0.000000 0.000000 0.000000 0.007723 -0.090143 47.265765 -0.000000 0.000000 0.000000 -0.863020 -0.862537 0.323882 0.000000 0.000000 0.000000 0.007723 -0.090143 47.265765 -0.000000 0.000000 0.000000 -0.870358 -3.474320 0.213889 0.000000 0.000000 0.000000
-84.934129 79.388603 313.415628 0.116192 0.124212 -47.357758 0.012659 -0.169614 47.357650 -0.000000 0.000000 0.000000 -0.000000 0.000000 0.000000 0.000000 0.000000 0.000000 -0.000000 0.000000 0.000000 -0.000000 0.000000 0.000000 1.911612 1.209852 -0.354643 -2.745491 -6.785961 -0.693588 0.000000 0.000000 0.000000 0.000000 0.000000 0.000000 -0.000000 0.000000 0.000000 1.148713 1.586767 0.088162 0.902702 0.714467 -0.343933 -2.770301 -0.084797 0.045316 0.000000 0.000000 0.000000 0.000000 0.000000 0.000000 0.012659 -0.169614 47.357650 -0.000000 0.000000 0.000000 -1.655566 -1.660799 0.615362 0.000000 0.000000 0.000000 0.012659 -0.169614 47.357650 -0.000000 0.000000 0.000000 -1.574040 -6.410433 0.323900 0.000000 0.000000 0.000000
-84.971791 79.392713 313.433215 0.165668 0.172109 -47.436430 0.014704 -0.238435 47.436211 -0.000000 0.000000 0.000000 -0.000000 0.000000 0.000000 0.000000 0.000000 0.000000 -0.000000 0.000000 0.000000 -0.000000 0.000000 0.000000 2.756236 1.658334 -0.519977 -3.859065 -9.115699 -0.937958 0.000000 0.000000 0.000000 0.000000 0.000000 0.000000 0.434847 0.681900 0.087094 1.163451 1.499753 0.037961 1.032236 0.528293 -0.471834 -3.428175 0.426969 0.018699 0.000000 0.000000 0.000000 0.000000 0.000000 0.000000 0.014704 -0.238435 47.436211 -0.000000 0.000000 0.000000 -2.369380 -2.383946 0.874208 0.000000 0.000000 0.000000 0.014704 -0.238435 47.436211 -0.000000 0.000000 0.000000 -2.073261 -8.627988 0.344534 0.000000 0.000000 0.000000
-85.009550 79.398777 313.447243 0.209401 0.210539 -47.501669 0.013764 -0.296624 47.501319 -0.000000 0.000000 0.000000 -0.000000 0.000000 0.000000 0.000000 0.000000 0.000000 -0.000000 0.000000 0.000000 -0.000000 0.000000 0.000000 3.518000 1.996842 -0.671217 -4.794192 -10.789435 -1.102582 0.000000 0.000000 0.000000 0.000000 0.000000 0.000000 0.554650 0.834210 0.109413 1.408424 1.812079 0.035365 0.940045 -0.025112 -0.568606 -3.601761 1.319959 -0.018680 0.000000 0.000000 0.000000 0.000000 0.000000 0.000000 0.013764 -0.296624 47.501319 -0.000000 0.000000 0.000000 -2.996879 -3.021935 1.100553 0.000000 0.000000 0.000000 0.013764 -0.296624 47.501319 -0.000000 0.000000 0.000000 -2.340039 -10.000754 0.293655 0.000000 0.000000 0.000000
-85.047405 79.406794 313.457713 0.247393 0.239504 -47.553366 0.009764 -0.344194 47.552879 -0.000000 0.000000 0.000000 -0.000000 0.000000 0.000000 0.000000 0.000000 0.000000 -0.000000 0.000000 0.000000 -0.000000 0.000000 0.000000 4.191269 2.222316 -0.804321 -5.546826 -11.835882 -1.182078 0.000000 0.000000 0.000000 0.000000 0.000000 0.000000 0.661978 0.949066 0.128681 1.582376 2.031172 0.027150 0.620730 -0.952165 -0.638377 -3.290434 2.604557 -0.070441 0.000000 0.000000 0.000000 0.000000 0.000000 0.000000 0.009764 -0.344194 47.552879 -0.000000 0.000000 0.000000 -3.531301 -3.565757 1.294788 0.000000 0.000000 0.000000 0.009764 -0.344194 47.552879 -0.000000 0.000000 0.000000 -2.359745 -10.465363 0.186461 0.000000 0.000000 0.000000
-85.085946 79.419327 313.461405 0.268844 0.252865 -47.583826 0.005342 -0.369038 47.583250 -0.000000 0.000000 0.000000 -0.000000 0.000000 0.000000 0.000000 0.000000 0.000000 -0.000000 0.000000 0.000000 -0.000000 0.000000 0.000000 5.243313 2.233204 -0.994786 -6.149515 -12.443255 -1.201594 0.000000 0.000000 0.000000 0.000000 0.000000 0.000000 0.732860 0.992928 0.140626 1.660344 2.074145 0.009998 -0.121477 -2.845613 -0.707996 -2.058509 6.143422 -0.309872 0.000000 0.000000 0.000000 0.000000 0.000000 0.000000 0.005342 -0.369038 47.583250 -0.000000 0.000000 0.000000 -3.653812 -3.685142 1.350145 0.000000 0.000000 0.000000 0.005342 -0.369038 47.583250 -0.000000 0.000000 0.000000 -1.873041 -9.641165 -0.183764 0.000000 0.000000 0.000000
-85.124235 79.431141 313.466024 0.292417 0.271223 -47.589842 0.003035 -0.398823 47.589161 -0.000000 0.000000 0.000000 -0.000000 0.000000 0.000000 0.000000 0.000000 0.000000 -0.000000 0.000000 0.000000 -0.000000 0.000000 0.000000 5.428688 1.623603 -0.986492 -6.202396 -11.215793 -1.027978 0.000000 0.000000 0.000000 0.000000 0.000000 0.000000 0.820458 1.027603 0.154923 1.659217 2.095037 -0.007329 -0.622897 -4.470029 -0.806345 -0.024534 9.163291 -0.859433 0.000000 0.000000 0.000000 0.000000 0.000000 0.000000 0.003035 -0.398823 47.589161 -0.000000 0.000000 0.000000 -1.592669 -1.536741 0.703487 0.000000 0.000000 0.000000 0.003035 -0.398823 47.589161 -0.000000 0.000000 0.000000 -3.687431 -10.258692 1.900001 0.000000 0.000000 0.000000
-85.160676 79.440946 313.468210 0.322234 0.271035 -47.568083 -0.017374 -0.420704 47.567257 -0.000000 0.000000 0.000000 -0.000000 0.000000 0.000000 0.000000 0.000000 0.000000 -0.000000 0.000000 0.000000 -0.000000 0.000000 0.000000 5.676861 1.977415 -1.055027 -6.016407 -10.578308 -0.840980 0.000000 0.000000 0.000000 0.000000 0.000000 0.000000 0.897997 1.009608 0.166590 1.654878 2.136868 -0.025580 -1.647273 -6.546992 -0.877311 1.893130 11.407373 -1.247918 0.000000 0.000000 0.000000 0.000000 0.000000 0.000000 -0.017374 -0.420704 47.567257 -0.000000 0.000000 0.000000 -2.070748 -1.943941 1.021947 0.000000 0.000000 0.000000 -0.017374 -0.420704 47.567257 -0.000000 0.000000 0.000000 -2.686026 -8.015463 1.266565 0.000000 0.000000 0.000000
-85.190985 79.452916 313.468647 0.359923 0.254242 -47.572056 -0.055168 -0.437194 47.571047 -0.000000 0.000000 0.000000 -0.053757 0.728196 -0.355655 0.000000 0.000000 0.000000 -0.000000 0.000000 0.000000 -0.000000 0.000000 0.000000 5.561258 2.599225 -1.077662 -5.969779 -9.213974 -0.450003 0.000000 0.000000 0.000000 0.000000 0.000000 0.000000 1.002583 1.000781 0.182649 1.576015 2.069046 -0.054613 -2.910759 -8.616385 -0.937869 3.284299 11.652360 -1.202205 0.000000 0.000000 0.000000 0.000000 0.000000 0.000000 -0.055168 -0.437194 47.571047 -0.000000 0.000000 0.000000 -4.110056 -4.088777 1.641199 0.000000 0.000000 0.000000 -0.055168 -0.437194 47.571047 -0.000000 0.000000 0.000000 0.436834 -3.534690 -1.376267 0.000000 0.000000 0.000000
-85.234149 79.466251 313.471828 0.381117 0.241401 -47.634252 -0.078464 -0.444260 47.633145 -0.000000 0.000000 0.000000 -0.198143 0.777409 -0.371974 0.000000 0.000000 0.000000 -0.000000 0.000000 0.000000 -0.000000 0.000000 0.000000 5.542914 2.553748 -1.071136 -4.480298 -8.374819 -0.483175 0.000000 0.000000 0.000000 0.000000 0.000000 0.000000 1.112177 1.017296 0.199946 1.410738 1.791530 -0.096420 -3.772781 -10.144067 -1.009360 4.273118 10.407609 -0.922724 0.000000 0.000000 0.000000 0.000000 0.000000 0.000000 -0.078464 -0.444260 47.633145 -0.000000 0.000000 0.000000 -2.976094 -2.890580 1.306058 0.000000 0.000000 0.000000 -0.078464 -0.444260 47.633145 -0.000000 0.000000 0.000000 5.039228 1.283977 -5.633557 0.000000 0.000000 0.000000
-85.282755 79.476585 313.473111 0.390313 0.220781 -47.723635 -0.099214 -0.437315 47.722504 -0.000000 0.000000 0.000000 -0.368600 0.895594 -0.420391 0.000000 0.000000 0.000000 -0.000000 0.000000 0.000000 -0.000000 0.000000 0.000000 5.601213 2.901438 -1.106109 -4.563008 -7.924582 -0.316763 0.000000 0.000000 0.000000 0.000000 0.000000 0.000000 1.199323 0.996288 0.213104 1.250964 1.510795 -0.137771 -5.351562 -11.495468 -0.967712 5.769609 11.285117 -1.188667 0.000000 0.000000 0.000000 0.000000 0.000000 0.000000 0.040889 0.349060 47.540058 -0.674740 -0.427491 0.180037 -0.829280 -0.682646 0.571653 0.000000 0.000000 0.000000 -0.099214 -0.437315 47.722504 -0.000000 0.000000 0.000000 12.813466 7.261045 -13.079583 0.000000 0.000000 0.000000
-85.336181 79.482803 313.475714 0.402107 0.188837 -47.813648 -0.130116 -0.424757 47.812503 -0.000000 0.000000 0.000000 -0.624819 1.074664 -0.493057 0.000000 0.000000 0.000000 -0.000000 0.000000 0.000000 -0.000000 0.000000 0.000000 5.396287 3.084691 -1.080410 -4.347739 -6.448615 -0.023774 0.000000 0.000000 0.000000 0.000000 0.000000 0.000000 1.277772 0.934767 0.224286 1.033926 1.225567 -0.176904 -6.793220 -12.063506 -0.827447 7.741351 11.394310 -1.712044 0.000000 0.000000 0.000000 0.000000 0.000000 0.000000 0.025583 0.379134 47.628578 -0.698852 -0.426729 0.181384 2.098002 2.223030 -0.561178 0.000000 0.000000 0.000000 -0.130116 -0.424757 47.812503 -0.000000 0.000000 0.000000 17.338698 10.287191 -17.380420 0.000000 0.000000 0.000000
